<svg width="1366" height="768" viewBox="0 0 1366 768" fill="none" xmlns="http://www.w3.org/2000/svg">
<rect width="1440" height="900" fill="url(#paint0_linear_1_7369)"/>
<g opacity="0.6" filter="url(#filter0_f_1_7369)">
<path d="M1392.83 803.914C1396.65 837.556 1162.58 891.771 870.021 925.007C577.459 958.244 299.4 985.906 295.578 952.264C291.756 918.622 563.619 836.415 856.181 803.179C1148.74 769.943 1389.01 770.272 1392.83 803.914Z" fill="#8349FF"/>
</g>
<g opacity="0.8" filter="url(#filter1_f_1_7369)">
<path d="M1314.79 546.387C1368.76 483.508 1371.84 435.515 1398.77 361.806C1450.75 219.523 1446.46 267.607 1508.25 128C1634.31 -156.859 1818.33 598.3 1508.25 762.211C1313.32 865.25 742.936 889.952 914.886 762.211C983.557 711.195 1049.28 716.582 1126.84 675.059C1206.87 632.206 1259.72 610.555 1314.79 546.387Z" fill="url(#paint1_linear_1_7369)"/>
</g>
<g filter="url(#filter2_f_1_7369)">
<path d="M-180.774 695.895C-388.189 714.277 -402.584 233.65 -421.629 18.7542C-406.541 -283.058 148.388 -454.979 369.785 -227.719C441.962 8.41554 1.10055 145.031 20.1451 359.927C39.1897 574.823 26.6414 677.513 -180.774 695.895Z" fill="#554959" fill-opacity="0.18"/>
</g>
<defs>
<filter id="filter0_f_1_7369" x="5.53809" y="488.466" width="1677.34" height="769.088" filterUnits="userSpaceOnUse" color-interpolation-filters="sRGB">
<feFlood flood-opacity="0" result="BackgroundImageFix"/>
<feBlend mode="normal" in="SourceGraphic" in2="BackgroundImageFix" result="shape"/>
<feGaussianBlur stdDeviation="145" result="effect1_foregroundBlur_1_7369"/>
</filter>
<filter id="filter1_f_1_7369" x="633" y="-185.577" width="1295.53" height="1284.58" filterUnits="userSpaceOnUse" color-interpolation-filters="sRGB">
<feFlood flood-opacity="0" result="BackgroundImageFix"/>
<feBlend mode="normal" in="SourceGraphic" in2="BackgroundImageFix" result="shape"/>
<feGaussianBlur stdDeviation="125" result="effect1_foregroundBlur_1_7369"/>
</filter>
<filter id="filter2_f_1_7369" x="-671.628" y="-582.085" width="1299.41" height="1528.49" filterUnits="userSpaceOnUse" color-interpolation-filters="sRGB">
<feFlood flood-opacity="0" result="BackgroundImageFix"/>
<feBlend mode="normal" in="SourceGraphic" in2="BackgroundImageFix" result="shape"/>
<feGaussianBlur stdDeviation="125" result="effect1_foregroundBlur_1_7369"/>
</filter>
<linearGradient id="paint0_linear_1_7369" x1="563.5" y1="3.94991e-06" x2="695.749" y2="961.71" gradientUnits="userSpaceOnUse">
<stop stop-color="#1C1927"/>
<stop offset="1" stop-color="#1E1B2A"/>
</linearGradient>
<linearGradient id="paint1_linear_1_7369" x1="1421.27" y1="247.522" x2="1283.31" y2="733.731" gradientUnits="userSpaceOnUse">
<stop stop-color="#FF0095"/>
<stop offset="1" stop-color="#FFCDFF"/>
</linearGradient>
</defs>
</svg>
